<svg width="1382" height="883" viewBox="0 0 1382 883" fill="none" xmlns="http://www.w3.org/2000/svg">
<path d="M1012.79 868.555C1005.59 864.955 1017.79 818.721 1024.79 796.055L1091.29 147.555C1146.96 127.221 1262.79 85.3547 1280.79 80.5547C1298.79 75.7547 1355.29 65.888 1381.29 61.5547C1377.79 63.0547 1362.29 88.0547 1359.29 100.055C1356.29 112.055 1362.29 110.555 1362.29 115.555C1362.29 120.555 1361.29 129.555 1357.79 147.555C1354.99 161.955 1356.62 227.555 1357.79 258.555C1352.29 261.555 1321.79 267.555 1319.79 270.555C1318.19 272.955 1345.46 274.888 1359.29 275.555C1351.29 341.555 1350.96 414.721 1351.79 443.055C1348.29 446.555 1298.29 463.055 1317.79 459.555C1333.39 456.755 1349.29 453.055 1355.29 451.555C1351.29 464.555 1351.29 589.055 1351.79 593.555C1352.29 598.055 1364.29 598.555 1372.29 602.555C1378.69 605.755 1378.29 629.221 1377.29 640.555C1371.79 663.055 1372.29 745.555 1372.29 751.055C1372.29 756.555 1356.79 760.055 1355.29 763.555C1353.79 767.055 1371.79 773.555 1372.29 779.055C1372.69 783.455 1369.12 804.555 1367.29 814.555C1315.79 824.055 1294.79 847.555 1288.79 852.055C1282.79 856.555 1272.79 861.055 1249.79 872.555C1226.79 884.055 1185.29 880.555 1171.79 880.555C1158.29 880.555 1149.79 884.055 1114.29 880.555C1078.79 877.055 1021.79 873.055 1012.79 868.555Z" fill="#B8A384"/>
<path d="M1010.93 850.24C1014.23 835.038 1018.5 795.9 1020.22 778.231C1096.83 765.896 1250.35 746.927 1251.59 769.73C1253.14 798.233 1245.91 817.236 1213.38 827.237C1180.84 837.238 1166.9 822.737 1102.34 834.738C1050.69 844.339 1022.63 859.408 1015.06 865.742C1012.3 866.909 1007.62 865.442 1010.93 850.24Z" fill="#998363"/>
<path d="M252.537 53.0547C242.137 50.2547 219.871 39.5547 210.037 34.5547C176.204 285.388 103.579 787.155 108.379 803.555C113.179 819.955 153.871 827.388 170.537 827.055C222.537 820.055 260.379 822.555 278.379 821.555C296.379 820.555 364.379 821.055 376.379 821.555C388.379 822.055 477.896 821.555 521.879 821.555C567.879 821.555 554.879 821.055 649.379 825.055C743.879 829.055 700.379 827.555 814.879 825.055C929.379 822.555 920.379 826.055 964.379 821.555C1008.38 817.055 1026.88 804.555 1087.88 803.555C1148.88 802.555 1185.54 779.555 1213.54 770.555C1235.94 763.355 1247.71 767.555 1251.88 770.555C1255.55 721.055 1265.54 619.355 1267.54 608.555C1270.04 595.055 1265.04 516.555 1262.54 482.555C1260.04 448.555 1261.54 426.055 1262.54 412.555C1263.54 399.055 1267.04 294.555 1267.54 278.055C1268.04 261.555 1268.04 246.555 1284.54 169.555C1297.74 107.955 1295.37 65.5547 1292.54 52.0547C1286.14 36.8547 1265.54 31.7214 1256.04 31.0547C1200.54 21.5547 1203.54 34.5547 1171.54 35.5547C1139.54 36.5547 1158.04 40.0547 1129.04 40.5547C1100.04 41.0547 1022.04 30.0547 981.537 31.0547C941.037 32.0547 865.037 14.0547 817.037 14.0547C769.037 14.0547 716.537 26.0547 681.537 29.5547C646.537 33.0547 549.537 55.5547 524.037 60.5547C498.537 65.5547 443.537 65.0547 412.537 60.5547C381.537 56.0547 358.037 61.0547 342.037 60.5547C326.037 60.0547 265.537 56.5547 252.537 53.0547Z" fill="#ECDDC7"/>
<path d="M108.29 800.053C105.09 788.853 117.382 684.554 120.882 663.054C147.382 593.554 212.79 663.553 213.79 683.053C214.79 702.553 205.79 726.053 158.29 749.553C120.29 768.353 109.123 791.053 108.29 800.053Z" fill="#927C5A"/>
<path d="M2.23805 18.4848C6.32227 11.6904 28.3832 3.33059 38.9032 0C179.881 79.9342 220.008 -27.0415 232.075 34.9077C238.108 65.8822 241.357 154.309 232.075 185.283C222.792 216.258 217.223 288.199 215.831 318.174C214.438 348.149 211.654 385.618 207.477 458.558C204.135 516.91 215.995 627.493 221.565 678.284C221.41 677.452 217.529 710.389 211.654 704.45C149.771 641.896 92.7595 699.915 50.5058 704.453C12.9124 708.491 14.7688 643.469 14.7688 643.469C14.7688 643.469 42.656 632.784 0.381261 588.516C-3.46903 584.484 23.1229 547.549 22.6588 546.051C22.1947 544.552 14.7688 548.549 12.9124 547.549C11.0559 546.55 14.7688 543.553 14.7688 512.079C14.7688 480.604 35.1899 480.604 38.9032 475.608C42.6164 470.613 29.6206 468.115 21.7306 466.116C15.4186 464.517 46.6381 456.124 63.0368 452.128C45.7099 453.96 11.7985 456.524 14.7688 452.128C18.4818 446.632 18.0177 415.658 18.0177 398.172C18.0177 380.687 25.4435 369.696 29.6205 362.202C33.7976 354.708 18.0176 364.2 14.7688 362.202C11.52 360.203 14.7688 353.709 14.7688 345.715C14.7688 337.722 11.0559 347.214 6.87888 345.715C2.70184 344.217 6.41476 338.221 14.7688 302.751C23.1229 267.28 14.7688 223.816 18.0177 217.821C21.2665 211.826 47.2569 212.825 50.5058 204.831C53.7546 196.838 25.4435 199.336 21.7306 196.338C18.0177 193.341 18.4818 90.4256 18.0177 79.9342C17.5535 69.4429 25.4435 69.4429 25.4435 65.4462C25.4435 61.4494 11.9841 60.9498 14.7688 57.4527C16.9966 54.655 54.0642 43.2977 72.3195 37.9688C67.6783 26.9778 -2.86722 26.9778 2.23805 18.4848Z" fill="#E1D0B6"/>
<path d="M753.253 315.055C757.653 311.455 772.087 307.221 778.753 305.555L823.253 311.055C829.753 311.388 843.253 312.055 845.253 312.055C847.253 312.055 853.087 316.388 855.753 318.555C845.253 333.055 827.253 341.555 823.253 342.555C820.053 343.355 798.92 342.221 788.753 341.555C755.753 342.555 738.753 338.555 740.253 335.555C741.453 333.155 748.42 325.888 751.753 322.555L753.253 315.055Z" fill="#594632"/>
<path d="M753.253 307.055C757.653 303.455 772.087 299.221 778.753 297.555L823.253 303.055C829.753 303.388 843.253 304.055 845.253 304.055C847.253 304.055 853.087 308.388 855.753 310.555C845.253 325.055 827.253 333.555 823.253 334.555C820.053 335.355 798.92 334.221 788.753 333.555C755.753 334.555 738.753 330.555 740.253 327.555C741.453 325.155 748.42 317.888 751.753 314.555L753.253 307.055Z" fill="#D0B8A1"/>
<path d="M646.753 283.055C649.953 279.855 663.753 274.055 670.253 271.555L712.253 270.055L728.253 273.055C730.253 277.855 726.753 281.721 724.753 283.055C729.153 286.255 731.587 292.388 732.253 295.055C726.653 301.855 714.253 303.555 708.753 303.555L673.253 302.055L665.253 292.055C657.753 290.388 643.553 286.255 646.753 283.055Z" fill="#594632"/>
<path d="M646.753 275.055C649.953 271.855 663.753 266.055 670.253 263.555L712.253 262.055L728.253 265.055C730.253 269.855 726.753 273.721 724.753 275.055C729.153 278.255 731.587 284.388 732.253 287.055C726.653 293.855 714.253 295.555 708.753 295.555L673.253 294.055L665.253 284.055C657.753 282.388 643.553 278.255 646.753 275.055Z" fill="#D0B8A1"/>
<path d="M654.254 197.555C659.454 193.155 674.421 188.055 681.254 186.055L722.254 197.055C732.087 199.888 752.554 206.455 755.754 210.055C758.954 213.655 757.087 216.888 755.754 218.055C760.254 220.055 763.254 232.555 759.254 237.055C756.054 240.655 743.254 235.555 737.254 232.555C733.254 231.888 724.254 229.755 720.254 226.555C716.254 223.355 696.587 225.221 687.254 226.555C677.754 226.721 658.654 226.455 658.254 224.055C657.854 221.655 661.421 210.721 663.254 205.555C658.087 204.721 649.054 201.955 654.254 197.555Z" fill="#594632"/>
<path d="M654.254 189.555C659.454 185.155 674.421 180.055 681.254 178.055L722.254 189.055C732.087 191.888 752.554 198.455 755.754 202.055C758.954 205.655 757.087 208.888 755.754 210.055C760.254 212.055 763.254 224.555 759.254 229.055C756.054 232.655 743.254 227.555 737.254 224.555C733.254 223.888 724.254 221.755 720.254 218.555C716.254 215.355 696.587 217.221 687.254 218.555C677.754 218.721 658.654 218.455 658.254 216.055C657.854 213.655 661.421 202.721 663.254 197.555C658.087 196.721 649.054 193.955 654.254 189.555Z" fill="#D0B8A1"/>
<path d="M1097.99 572.635V585.695L1087.75 574.815L1087.37 574.295L1087.43 574.935V583.475H1088.87V585.055H1084.03V583.475H1085.77V572.635H1084.03V571.055H1086.35L1096.01 581.515L1096.39 582.035L1096.33 581.395V572.635H1094.89V571.055H1099.73V572.635H1097.99Z" fill="#594632"/>
<path d="M1177.89 668.055H1167.87V666.475H1168.99V655.635H1167.87V654.055H1177.61V657.135H1176.03V655.635H1170.65V660.215H1176.83V661.795H1170.65V666.475H1176.31V664.975H1177.89V668.055Z" fill="#594632"/>
<path d="M1095.07 751.175C1094.68 751.508 1094.23 751.768 1093.73 751.955C1093.22 752.128 1092.69 752.215 1092.13 752.215C1091.62 752.215 1091.13 752.161 1090.65 752.055C1090.17 751.935 1089.73 751.781 1089.33 751.595C1088.93 751.408 1088.57 751.195 1088.25 750.955C1087.94 750.715 1087.7 750.461 1087.53 750.195V747.875H1089.11V749.655C1089.45 749.921 1089.87 750.155 1090.35 750.355C1090.83 750.541 1091.37 750.635 1091.97 750.635C1092.31 750.635 1092.65 750.588 1092.97 750.495C1093.29 750.388 1093.57 750.241 1093.83 750.055C1094.07 749.855 1094.26 749.608 1094.41 749.315C1094.55 749.021 1094.63 748.681 1094.63 748.295C1094.63 748.055 1094.61 747.815 1094.57 747.575C1094.54 747.335 1094.47 747.128 1094.37 746.955C1094.19 746.675 1093.99 746.455 1093.75 746.295C1093.52 746.121 1093.25 745.961 1092.95 745.815C1092.47 745.615 1091.95 745.441 1091.39 745.295C1090.83 745.148 1090.31 744.948 1089.83 744.695C1089.33 744.441 1088.92 744.088 1088.59 743.635C1088.27 743.181 1088.1 742.541 1088.09 741.715C1088.07 741.275 1088.13 740.835 1088.27 740.395C1088.4 739.955 1088.62 739.555 1088.93 739.195C1089.23 738.835 1089.64 738.541 1090.15 738.315C1090.65 738.088 1091.27 737.975 1092.01 737.975C1092.25 737.975 1092.51 737.988 1092.79 738.015C1093.07 738.041 1093.36 738.095 1093.67 738.175C1093.97 738.255 1094.29 738.375 1094.61 738.535C1094.94 738.695 1095.27 738.908 1095.59 739.175V741.135H1094.01V739.955C1093.75 739.848 1093.46 739.755 1093.13 739.675C1092.79 739.595 1092.43 739.555 1092.03 739.555C1091.63 739.555 1091.28 739.621 1090.99 739.755C1090.69 739.875 1090.45 740.041 1090.27 740.255C1090.09 740.455 1089.96 740.688 1089.87 740.955C1089.79 741.208 1089.75 741.481 1089.75 741.775C1089.75 742.175 1089.84 742.501 1090.03 742.755C1090.21 742.995 1090.46 743.201 1090.77 743.375C1091.25 743.628 1091.82 743.855 1092.49 744.055C1093.15 744.241 1093.79 744.481 1094.41 744.775C1094.97 745.041 1095.42 745.455 1095.77 746.015C1096.11 746.575 1096.29 747.341 1096.29 748.315C1096.29 748.915 1096.17 749.455 1095.95 749.935C1095.73 750.415 1095.44 750.828 1095.07 751.175Z" fill="#594632"/>
<path d="M1006.02 664.215C1005.68 664.975 1005.34 665.735 1005.02 666.495C1004.7 667.241 1004.39 667.975 1004.08 668.695C1003.16 666.495 1002.24 664.321 1001.3 662.175C1000.38 660.015 999.464 657.835 998.544 655.635H996.804V654.055H1001.64V655.635H1000.2C1000.83 657.088 1001.44 658.541 1002.04 659.995C1002.66 661.448 1003.28 662.901 1003.9 664.355L1004.08 665.015C1004.24 664.548 1004.46 663.988 1004.72 663.335C1004.99 662.668 1005.26 662.035 1005.52 661.435C1005.78 660.848 1006.02 660.261 1006.26 659.675C1006.5 659.088 1006.74 658.508 1006.98 657.935C1006.82 657.548 1006.66 657.168 1006.48 656.795C1006.32 656.408 1006.16 656.021 1006 655.635H1004.16V654.055H1009V655.635H1007.66C1008.29 657.088 1008.9 658.541 1009.5 659.995C1010.12 661.448 1010.74 662.901 1011.36 664.355L1011.54 665.015L1011.72 664.355C1012.35 662.901 1012.96 661.455 1013.56 660.015C1014.18 658.561 1014.79 657.101 1015.4 655.635H1014.12V654.055H1018.96V655.635H1017.08C1016.16 657.835 1015.24 660.015 1014.3 662.175C1013.38 664.321 1012.46 666.495 1011.54 668.695L1008 660.355L1007.8 659.655C1007.62 660.268 1007.36 660.995 1007.02 661.835C1006.7 662.661 1006.37 663.455 1006.02 664.215Z" fill="#594632"/>
<circle cx="1091.38" cy="663.555" r="43.572" stroke="#715941" stroke-width="3.85593"/>
<circle cx="1089.38" cy="664.555" r="33" stroke="#715941"/>
<path d="M1091.88 663.055V591.055L1075.88 650.555L1091.88 663.055Z" fill="#594632"/>
<path d="M1091.88 663.055V591.055L1107.38 650.555L1091.88 663.055Z" fill="#DAC3A1"/>
<path d="M1091.88 663.055L1163.88 663.055L1104.38 647.055L1091.88 663.055Z" fill="#594632"/>
<path d="M1091.88 663.055L1163.88 663.055L1104.38 678.555L1091.88 663.055Z" fill="#DAC3A1"/>
<path d="M1091.88 663.555L1019.88 663.555L1079.38 679.555L1091.88 663.555Z" fill="#594632"/>
<path d="M1091.88 663.555L1019.88 663.555L1079.38 648.055L1091.88 663.555Z" fill="#DAC3A1"/>
<path d="M1091.38 663.055V735.055L1107.38 675.555L1091.38 663.055Z" fill="#594632"/>
<path d="M1091.38 663.055V735.055L1075.88 675.555L1091.38 663.055Z" fill="#DAC3A1"/>
<path d="M520.883 511.555C524.483 507.155 551.383 497.388 564.383 493.055C587.383 499.221 637.483 510.655 653.883 507.055C670.283 503.455 703.716 498.221 718.383 496.055C731.383 506.555 757.983 528.655 760.383 533.055C762.783 537.455 761.383 550.555 760.383 556.555L774.883 565.055V584.055C793.216 597.055 830.583 623.555 833.383 625.555C836.883 628.055 844.383 651.555 840.883 654.555C837.383 657.555 818.383 657.555 812.383 657.555C807.583 657.555 778.383 677.221 764.383 687.055L774.883 698.055C773.716 703.055 770.783 713.055 768.383 713.055H709.883L642.883 733.055L547.883 744.055C537.049 741.888 513.683 736.655 506.883 733.055C498.383 728.555 462.383 734.055 456.383 733.055C450.383 732.055 404.383 703.055 402.383 698.055C400.783 694.055 406.049 675.388 408.883 666.555C405.383 663.721 397.883 657.955 395.883 657.555C393.883 657.155 391.049 646.388 389.883 641.055L421.383 602.555L480.883 573.555C478.049 566.555 473.283 551.455 476.883 547.055C480.483 542.655 504.049 532.221 515.383 527.555C515.716 524.055 517.283 515.955 520.883 511.555Z" fill="#715941" fill-opacity="0.67"/>
<path d="M520.883 496.555C524.483 492.155 551.383 482.388 564.383 478.055C587.383 484.221 637.483 495.655 653.883 492.055C670.283 488.455 703.716 483.221 718.383 481.055C731.383 491.555 757.983 513.655 760.383 518.055C762.783 522.455 761.383 535.555 760.383 541.555L774.883 550.055V569.055C793.216 582.055 830.583 608.555 833.383 610.555C836.883 613.055 844.383 636.555 840.883 639.555C837.383 642.555 818.383 642.555 812.383 642.555C807.583 642.555 778.383 662.221 764.383 672.055L774.883 683.055C773.716 688.055 770.783 698.055 768.383 698.055H709.883L642.883 718.055L547.883 729.055C537.049 726.888 513.683 721.655 506.883 718.055C498.383 713.555 462.383 719.055 456.383 718.055C450.383 717.055 404.383 688.055 402.383 683.055C400.783 679.055 406.049 660.388 408.883 651.555C405.383 648.721 397.883 642.955 395.883 642.555C393.883 642.155 391.049 631.388 389.883 626.055L421.383 587.555L480.883 558.555C478.049 551.555 473.283 536.455 476.883 532.055C480.483 527.655 504.049 517.221 515.383 512.555C515.716 509.055 517.283 500.955 520.883 496.555Z" fill="#D0B8A1"/>
<path d="M462.687 656.644C468.066 653.058 471.652 653.656 472.773 654.403C478.003 656.644 477.63 660.006 477.63 661.874C477.63 663.742 473.894 667.851 471.279 668.598C468.664 669.346 455.962 661.127 462.687 656.644Z" fill="#B1927A"/>
<path d="M467.31 648.763C468.738 647.858 469.69 648.009 469.987 648.198C471.375 648.763 471.276 649.611 471.276 650.082C471.276 650.553 470.285 651.59 469.591 651.778C468.897 651.967 465.525 649.894 467.31 648.763Z" fill="#B1927A"/>
<path d="M474.037 650.255C475.464 649.351 476.416 649.501 476.714 649.69C478.102 650.255 478.003 651.103 478.003 651.574C478.003 652.046 477.011 653.082 476.317 653.271C475.623 653.459 472.252 651.386 474.037 650.255Z" fill="#B1927A"/>
<path d="M479.265 654.74C480.693 653.835 481.645 653.986 481.942 654.174C483.33 654.74 483.231 655.588 483.231 656.059C483.231 656.53 482.24 657.567 481.546 657.755C480.852 657.943 477.48 655.87 479.265 654.74Z" fill="#B1927A"/>
<path d="M480.013 660.716C481.441 659.812 482.393 659.962 482.69 660.151C484.079 660.716 483.979 661.564 483.979 662.035C483.979 662.507 482.988 663.543 482.294 663.732C481.6 663.92 478.228 661.847 480.013 660.716Z" fill="#B1927A"/>
<path d="M713.687 512.644C719.066 509.058 722.652 509.656 723.773 510.403C729.003 512.644 728.63 516.006 728.63 517.874C728.63 519.742 724.894 523.851 722.279 524.598C719.664 525.346 706.962 517.127 713.687 512.644Z" fill="#B1927A"/>
<path d="M718.31 504.763C719.738 503.858 720.69 504.009 720.987 504.198C722.375 504.763 722.276 505.611 722.276 506.082C722.276 506.553 721.285 507.59 720.591 507.778C719.897 507.967 716.525 505.894 718.31 504.763Z" fill="#B1927A"/>
<path d="M725.037 506.255C726.464 505.351 727.416 505.501 727.714 505.69C729.102 506.255 729.003 507.103 729.003 507.574C729.003 508.046 728.011 509.082 727.317 509.271C726.623 509.459 723.252 507.386 725.037 506.255Z" fill="#B1927A"/>
<path d="M730.265 510.74C731.693 509.835 732.645 509.986 732.942 510.174C734.33 510.74 734.231 511.588 734.231 512.059C734.231 512.53 733.24 513.567 732.546 513.755C731.852 513.943 728.48 511.87 730.265 510.74Z" fill="#B1927A"/>
<path d="M731.013 516.716C732.441 515.812 733.393 515.962 733.69 516.151C735.079 516.716 734.979 517.564 734.979 518.035C734.979 518.507 733.988 519.543 733.294 519.732C732.6 519.92 729.228 517.847 731.013 516.716Z" fill="#B1927A"/>
<path d="M426.232 660.644C431.611 657.058 435.197 657.656 436.318 658.403C441.548 660.644 441.175 664.006 441.175 665.874C441.175 667.742 437.439 671.851 434.824 672.598C432.209 673.346 419.507 665.127 426.232 660.644Z" fill="#B1927A"/>
<path d="M430.857 652.763C432.285 651.858 433.237 652.009 433.534 652.198C434.922 652.763 434.823 653.611 434.823 654.082C434.823 654.553 433.832 655.59 433.137 655.778C432.443 655.967 429.072 653.894 430.857 652.763Z" fill="#B1927A"/>
<path d="M437.58 654.255C439.007 653.351 439.959 653.501 440.257 653.69C441.645 654.255 441.546 655.103 441.546 655.574C441.546 656.046 440.554 657.082 439.86 657.271C439.166 657.459 435.795 655.386 437.58 654.255Z" fill="#B1927A"/>
<path d="M442.81 658.74C444.238 657.835 445.19 657.986 445.487 658.174C446.875 658.74 446.776 659.588 446.776 660.059C446.776 660.53 445.785 661.567 445.091 661.755C444.397 661.943 441.025 659.87 442.81 658.74Z" fill="#B1927A"/>
<path d="M443.558 664.716C444.986 663.812 445.938 663.962 446.235 664.151C447.623 664.716 447.524 665.564 447.524 666.035C447.524 666.507 446.533 667.543 445.839 667.732C445.145 667.92 441.773 665.847 443.558 664.716Z" fill="#B1927A"/>
<path d="M677.232 516.644C682.611 513.058 686.197 513.656 687.318 514.403C692.548 516.644 692.175 520.006 692.175 521.874C692.175 523.742 688.439 527.851 685.824 528.598C683.209 529.346 670.507 521.127 677.232 516.644Z" fill="#B1927A"/>
<path d="M681.857 508.763C683.285 507.858 684.237 508.009 684.534 508.198C685.922 508.763 685.823 509.611 685.823 510.082C685.823 510.553 684.832 511.59 684.137 511.778C683.443 511.967 680.072 509.894 681.857 508.763Z" fill="#B1927A"/>
<path d="M688.58 510.255C690.007 509.351 690.959 509.501 691.257 509.69C692.645 510.255 692.546 511.103 692.546 511.574C692.546 512.046 691.554 513.082 690.86 513.271C690.166 513.459 686.795 511.386 688.58 510.255Z" fill="#B1927A"/>
<path d="M693.81 514.74C695.238 513.835 696.19 513.986 696.487 514.174C697.875 514.74 697.776 515.588 697.776 516.059C697.776 516.53 696.785 517.567 696.091 517.755C695.397 517.943 692.025 515.87 693.81 514.74Z" fill="#B1927A"/>
<path d="M694.558 520.716C695.986 519.812 696.938 519.962 697.235 520.151C698.623 520.716 698.524 521.564 698.524 522.035C698.524 522.507 697.533 523.543 696.839 523.732C696.145 523.92 692.773 521.847 694.558 520.716Z" fill="#B1927A"/>
<path d="M444.232 688.644C449.611 685.058 453.197 685.656 454.318 686.403C459.548 688.644 459.175 692.006 459.175 693.874C459.175 695.742 455.439 699.851 452.824 700.598C450.209 701.346 437.507 693.127 444.232 688.644Z" fill="#B1927A"/>
<path d="M448.857 680.763C450.285 679.858 451.237 680.009 451.534 680.198C452.922 680.763 452.823 681.611 452.823 682.082C452.823 682.553 451.832 683.59 451.137 683.778C450.443 683.967 447.072 681.894 448.857 680.763Z" fill="#B1927A"/>
<path d="M455.58 682.255C457.007 681.351 457.959 681.501 458.257 681.69C459.645 682.255 459.546 683.103 459.546 683.574C459.546 684.046 458.554 685.082 457.86 685.271C457.166 685.459 453.795 683.386 455.58 682.255Z" fill="#B1927A"/>
<path d="M460.81 686.74C462.238 685.835 463.19 685.986 463.487 686.174C464.875 686.74 464.776 687.588 464.776 688.059C464.776 688.53 463.785 689.567 463.091 689.755C462.397 689.943 459.025 687.87 460.81 686.74Z" fill="#B1927A"/>
<path d="M461.558 692.716C462.986 691.812 463.938 691.962 464.235 692.151C465.623 692.716 465.524 693.564 465.524 694.035C465.524 694.507 464.533 695.543 463.839 695.732C463.145 695.92 459.773 693.847 461.558 692.716Z" fill="#B1927A"/>
<path d="M695.232 544.644C700.611 541.058 704.197 541.656 705.318 542.403C710.548 544.644 710.175 548.006 710.175 549.874C710.175 551.742 706.439 555.851 703.824 556.598C701.209 557.346 688.507 549.127 695.232 544.644Z" fill="#B1927A"/>
<path d="M699.857 536.763C701.285 535.858 702.237 536.009 702.534 536.198C703.922 536.763 703.823 537.611 703.823 538.082C703.823 538.553 702.832 539.59 702.137 539.778C701.443 539.967 698.072 537.894 699.857 536.763Z" fill="#B1927A"/>
<path d="M706.58 538.255C708.007 537.351 708.959 537.501 709.257 537.69C710.645 538.255 710.546 539.103 710.546 539.574C710.546 540.046 709.554 541.082 708.86 541.271C708.166 541.459 704.795 539.386 706.58 538.255Z" fill="#B1927A"/>
<path d="M711.81 542.74C713.238 541.835 714.19 541.986 714.487 542.174C715.875 542.74 715.776 543.588 715.776 544.059C715.776 544.53 714.785 545.567 714.091 545.755C713.397 545.943 710.025 543.87 711.81 542.74Z" fill="#B1927A"/>
<path d="M712.558 548.716C713.986 547.812 714.938 547.962 715.235 548.151C716.623 548.716 716.524 549.564 716.524 550.035C716.524 550.507 715.533 551.543 714.839 551.732C714.145 551.92 710.773 549.847 712.558 548.716Z" fill="#B1927A"/>
<path d="M295.289 349.571C299.289 343.171 311.289 323.571 316.789 314.571L322.789 288.571C331.289 284.071 347.889 274.471 346.289 272.071C344.289 269.071 353.289 237.071 353.789 234.071C354.189 231.671 362.956 229.071 367.289 228.071C372.289 224.071 383.089 215.371 386.289 212.571C390.289 209.071 392.789 205.071 404.289 204.571C415.789 204.071 437.789 194.571 441.789 194.571C445.789 194.571 460.789 183.571 464.789 184.071C467.989 184.471 477.122 188.238 481.289 190.071C495.789 191.071 525.089 193.371 526.289 194.571C527.489 195.771 532.122 205.405 534.289 210.071L555.289 216.071C569.789 224.905 598.789 243.271 598.789 246.071C598.789 249.571 596.289 267.571 596.289 270.071C596.289 272.571 604.289 284.571 603.789 288.571C603.289 292.571 595.789 327.571 596.289 329.571C596.789 331.571 624.289 341.071 628.789 346.071C633.289 351.071 639.289 386.071 633.289 381.571C628.489 377.971 617.956 377.071 613.289 377.071C612.489 380.671 605.289 388.571 601.789 392.071L585.289 390.571C582.289 390.571 576.789 406.071 570.789 406.071C564.789 406.071 557.789 407.571 548.789 406.071C539.789 404.571 519.289 398.571 515.289 398.571C511.289 398.571 489.789 398.071 487.289 398.571C485.289 398.971 482.456 411.071 481.289 417.071C473.789 418.571 457.789 421.471 453.789 421.071C449.789 420.671 427.456 414.571 416.789 411.571C401.956 412.571 371.289 413.971 367.289 411.571C362.289 408.571 353.289 394.071 348.289 390.571C344.289 387.771 332.622 383.405 327.289 381.571C319.689 383.971 311.789 385.571 308.789 386.071C300.789 383.571 302.289 368.071 299.789 364.071C297.789 360.871 295.956 353.071 295.289 349.571Z" fill="#715941" fill-opacity="0.67"/>
<path d="M295.289 336.571C299.289 330.171 311.289 310.571 316.789 301.571L322.789 275.571C331.289 271.071 347.889 261.471 346.289 259.071C344.289 256.071 353.289 224.071 353.789 221.071C354.189 218.671 362.956 216.071 367.289 215.071C372.289 211.071 383.089 202.371 386.289 199.571C390.289 196.071 392.789 192.071 404.289 191.571C415.789 191.071 437.789 181.571 441.789 181.571C445.789 181.571 460.789 170.571 464.789 171.071C467.989 171.471 477.122 175.238 481.289 177.071C495.789 178.071 525.089 180.371 526.289 181.571C527.489 182.771 532.122 192.405 534.289 197.071L555.289 203.071C569.789 211.905 598.789 230.271 598.789 233.071C598.789 236.571 596.289 254.571 596.289 257.071C596.289 259.571 604.289 271.571 603.789 275.571C603.289 279.571 595.789 314.571 596.289 316.571C596.789 318.571 624.289 328.071 628.789 333.071C633.289 338.071 639.289 373.071 633.289 368.571C628.489 364.971 617.956 364.071 613.289 364.071C612.489 367.671 605.289 375.571 601.789 379.071L585.289 377.571C582.289 377.571 576.789 393.071 570.789 393.071C564.789 393.071 557.789 394.571 548.789 393.071C539.789 391.571 519.289 385.571 515.289 385.571C511.289 385.571 489.789 385.071 487.289 385.571C485.289 385.971 482.456 398.071 481.289 404.071C473.789 405.571 457.789 408.471 453.789 408.071C449.789 407.671 427.456 401.571 416.789 398.571C401.956 399.571 371.289 400.971 367.289 398.571C362.289 395.571 353.289 381.071 348.289 377.571C344.289 374.771 332.622 370.405 327.289 368.571C319.689 370.971 311.789 372.571 308.789 373.071C300.789 370.571 302.289 355.071 299.789 351.071C297.789 347.871 295.956 340.071 295.289 336.571Z" fill="#D0B8A1"/>
<path d="M528.282 168.981C533.446 181.651 534.462 215.744 534.761 230.65L544.312 230.498C540.323 194.315 542.672 174.118 544.346 168.542L528.282 168.981Z" fill="#B69175"/>
<path d="M506.248 135.975C526.108 135.975 533.437 144.979 535.949 151.223C542.332 136.047 559.591 133.282 566.093 132.055C557.936 134.843 553.829 143.672 552.794 147.738C562.369 146.692 569.492 151.949 571.856 154.708C564.763 153.314 553.533 155.289 548.805 156.451C563.345 157.845 573.186 166.906 576.289 171.263C571.679 167.429 557.523 167.051 551.021 167.342C557.05 170.478 559.739 174.457 560.33 176.055C554.301 172.57 543.337 173.731 538.609 174.748C532.934 172.308 517.921 174.603 511.124 176.055C513.607 173.615 521.024 169.23 524.423 167.342C517.33 164.205 498.712 168.649 490.289 171.263C497.382 160.459 511.272 156.886 517.33 156.451C511.656 151.572 499.007 150.933 493.392 151.223C502.967 145.995 515.114 147.593 519.99 149.045C514.671 141.029 508.612 136.992 506.248 135.975Z" fill="#594632"/>
<ellipse cx="527.29" cy="174.554" rx="7" ry="8.5" transform="rotate(4.14281 527.29 174.554)" fill="#DDB88C"/>
<ellipse cx="536.789" cy="176.555" rx="8.5" ry="10.5" fill="#BF9769"/>
<ellipse cx="546.247" cy="174.075" rx="7" ry="8.5" transform="rotate(-14.9691 546.247 174.075)" fill="#DDB88C"/>
<path d="M560.402 187.056C563.979 200.263 560.818 234.224 559.292 249.055L568.79 250.071C569.255 213.672 574.057 193.914 576.4 188.585L560.402 187.056Z" fill="#B69175"/>
<path d="M602.204 159.423C582.458 157.306 574.21 165.476 571.047 171.417C566.318 155.647 549.452 151.058 543.118 149.144C550.931 152.786 554.074 162.003 554.669 166.156C545.26 164.095 537.618 168.563 534.973 171.054C542.174 170.424 553.129 173.585 557.707 175.244C543.101 175.08 532.35 183.041 528.8 187.041C533.793 183.721 547.908 184.855 554.342 185.837C548.013 188.313 544.915 191.982 544.157 193.508C550.523 190.685 561.301 193.009 565.894 194.524C571.796 192.704 586.479 196.586 593.083 198.754C590.874 196.064 583.966 190.912 580.788 188.673C588.175 186.311 606.214 192.714 614.31 196.211C608.409 184.712 594.979 179.679 589.002 178.6C595.164 174.354 607.809 175.067 613.361 175.955C604.398 169.736 592.15 170.029 587.147 170.953C593.291 163.55 599.745 160.182 602.204 159.423Z" fill="#715941"/>
<ellipse cx="562.885" cy="194.554" rx="7" ry="8.5" transform="rotate(4.14281 562.885 194.554)" fill="#DDB88C"/>
<ellipse cx="573.247" cy="194.075" rx="7" ry="8.5" transform="rotate(-14.9691 573.247 194.075)" fill="#BF9769"/>
<path d="M332.377 292.056C328.8 305.263 331.961 339.224 333.487 354.055L323.989 355.071C323.524 318.672 318.722 298.914 316.38 293.585L332.377 292.056Z" fill="#B69175"/>
<path d="M290.575 264.423C310.321 262.306 318.569 270.476 321.732 276.417C326.461 260.647 343.327 256.058 349.661 254.144C341.848 257.786 338.705 267.003 338.11 271.156C347.519 269.095 355.162 273.563 357.806 276.054C350.605 275.424 339.65 278.585 335.072 280.244C349.678 280.08 360.429 288.041 363.979 292.041C358.987 288.721 344.871 289.855 338.437 290.837C344.766 293.313 347.864 296.982 348.622 298.508C342.256 295.685 331.478 298.009 326.885 299.524C320.983 297.704 306.3 301.586 299.697 303.754C301.905 301.064 308.813 295.912 311.991 293.673C304.604 291.311 286.566 297.714 278.47 301.211C284.37 289.712 297.8 284.679 303.777 283.6C297.615 279.354 284.97 280.067 279.418 280.955C288.382 274.736 300.629 275.029 305.632 275.953C299.488 268.55 293.034 265.182 290.575 264.423Z" fill="#715941"/>
<ellipse cx="7" cy="8.5" rx="7" ry="8.5" transform="matrix(-0.997387 0.0722427 0.0722427 0.997387 336.262 290.57)" fill="#DDB88C"/>
<ellipse cx="7" cy="8.5" rx="7" ry="8.5" transform="matrix(-0.966065 -0.258298 -0.258298 0.966065 328.49 292.672)" fill="#BF9769"/>
<path d="M557.29 246.053C554.49 245.653 553.79 248.553 553.79 250.053C552.29 253.642 567.79 252.553 570.29 253.053C572.79 253.553 571.79 252.053 572.29 249.053C572.79 246.053 570.79 247.553 567.79 246.053C564.79 244.553 564.29 249.053 563.29 247.553C562.29 246.053 560.79 246.553 557.29 246.053Z" fill="#C5AD96"/>
<path d="M322.891 351.365C320.091 350.965 319.391 353.865 319.391 355.365C317.891 358.955 333.391 357.865 335.891 358.365C338.391 358.865 337.391 357.365 337.891 354.365C338.391 351.365 336.391 352.865 333.391 351.365C330.391 349.865 329.891 354.365 328.891 352.865C327.891 351.365 326.391 351.865 322.891 351.365Z" fill="#C5AD96"/>
<path d="M532.891 226.365C530.091 225.965 529.391 228.865 529.391 230.365C527.891 233.955 543.391 232.865 545.891 233.365C548.391 233.865 547.391 232.365 547.891 229.365C548.391 226.365 546.391 227.865 543.391 226.365C540.391 224.865 539.891 229.365 538.891 227.865C537.891 226.365 536.391 226.865 532.891 226.365Z" fill="#C5AD96"/>
<path fill-rule="evenodd" clip-rule="evenodd" d="M380.4 509.476C381.124 511.706 381.536 517.252 377.396 521.598C375.605 523.479 376.753 523.204 378.872 521.686C385.505 515.525 388.69 511.781 387.984 505.929C385.39 505.809 382.607 506.966 380.4 509.476Z" fill="#594632"/>
<path d="M378.872 521.686C382.873 518.819 390.334 511.518 387.984 505.929C388.69 511.781 385.505 515.525 378.872 521.686Z" fill="#C2A28A"/>
<path d="M374.35 517.719C391.253 511.557 397.715 507.964 403.401 504.837C408.284 502.152 409.087 500.185 408.829 498.375C405.727 499.754 403.66 500.185 401.075 500.702C400.343 500.848 398.797 500.784 397.332 500.723C396.109 500.672 394.943 500.623 394.355 500.702C390.22 505.579 382.55 512.121 366.237 518.094C351.277 523.571 336.44 529.004 334.526 533.863C338.832 528.123 363.204 521.782 374.35 517.719Z" fill="#CBB7A7"/>
<path d="M367.733 492.948C363.856 493.982 360.238 495.349 354.259 499.063C351.244 500.935 342.126 508.852 333.874 517.272C352.244 501.558 362.305 496.825 368.509 494.24C370.866 493.356 372.132 492.724 373.502 492.039C374.536 491.523 375.63 490.977 377.296 490.27C373.468 491.238 370.009 492.049 367.733 492.948Z" fill="#C2A28A"/>
<path fill-rule="evenodd" clip-rule="evenodd" d="M396.952 494.399C390.359 488.658 383.2 488.778 377.296 490.27C375.63 490.977 374.536 491.523 373.502 492.039C372.132 492.724 370.866 493.356 368.509 494.24C362.305 496.825 352.244 501.558 333.874 517.272C328.07 523.196 322.694 529.369 320.176 533.863H334.526C336.44 529.004 351.277 523.571 366.237 518.094C382.55 512.121 390.22 505.579 394.355 500.702C394.943 500.623 396.109 500.672 397.332 500.723C398.797 500.784 400.343 500.848 401.075 500.702C403.66 500.185 405.727 499.754 408.829 498.375C408.57 496.566 403.401 494.399 396.952 494.399Z" fill="#B1927A"/>
<path d="M347.801 484.354C353.254 488.659 354.378 495.954 354.259 499.063C360.238 495.349 363.856 493.982 367.733 492.948C363.428 482.902 340.984 478.972 347.801 484.354Z" fill="#594632"/>
<circle cx="394.355" cy="500.441" r="1.29232" fill="#36291C"/>
<path d="M395.323 500.415C395.216 500.51 394.881 500.307 394.786 500.201C394.691 500.094 394.7 499.931 394.807 499.836C394.914 499.741 395.077 499.75 395.172 499.857C395.267 499.964 395.429 500.32 395.323 500.415Z" fill="white"/>
<path fill-rule="evenodd" clip-rule="evenodd" d="M366.96 517.742C367.684 519.971 368.097 525.517 363.957 529.864C362.165 531.745 363.314 531.47 365.432 529.952C372.065 523.791 375.251 520.047 374.545 514.195C371.95 514.074 369.167 515.232 366.96 517.742Z" fill="#594632"/>
<path d="M365.432 529.952C369.433 527.085 376.894 519.783 374.545 514.195C375.251 520.047 372.065 523.791 365.432 529.952Z" fill="#C2A28A"/>
<path d="M309.784 575.936C313.365 572.973 323.416 564.157 334.973 552.599C339.237 548.336 344.288 542.571 343.954 541.009C341.227 543.596 335.467 547.376 331.289 547.745C318.516 556.551 313.243 563.234 303.892 575.206C306.221 575.433 308.254 575.696 309.784 575.936Z" fill="#CBB7A7"/>
<path d="M284.766 567.388L281.405 575.936C283.422 575.399 284.117 575.054 286.575 574.854C290.117 561.667 300.273 548.628 305.443 542.968C299.514 546.369 292.778 552.139 289.935 556.274C289.418 557.05 288.126 559.893 287.092 561.96C286.391 563.363 285.629 565.444 284.766 567.388Z" fill="#C2A28A"/>
<path fill-rule="evenodd" clip-rule="evenodd" d="M333.518 541.009C323.871 535.669 313.673 538.247 305.443 542.968C300.273 548.628 290.117 561.667 286.575 574.854C292.32 574.387 298.81 574.71 303.892 575.206C313.243 563.234 318.516 556.551 331.289 547.745C335.467 547.376 341.227 543.596 343.954 541.009C343.383 538.336 337.57 539.996 333.518 541.009Z" fill="#B1927A"/>
<path d="M267.555 568.528C275.556 565.564 282.173 566.4 284.766 567.388C285.629 565.444 286.391 563.363 287.092 561.96C288.126 559.893 289.418 557.05 289.935 556.274C274.377 555.533 257.554 572.232 267.555 568.528Z" fill="#594632"/>
<path d="M310.24 586.425C311.418 578.561 308.298 573.292 306.591 571.641L313.56 563.136C324.146 574.102 308.768 596.255 310.24 586.425Z" fill="#594632"/>
<circle cx="331.031" cy="547.225" r="1.63124" transform="rotate(-18.705 331.031 547.225)" fill="#36291C"/>
<path d="M332.178 546.806C332.089 546.963 331.606 546.857 331.45 546.768C331.293 546.679 331.238 546.479 331.327 546.323C331.416 546.166 331.615 546.111 331.772 546.2C331.929 546.289 332.267 546.65 332.178 546.806Z" fill="white"/>
<path d="M307.244 479.487C313.379 476.311 323.329 472.458 327.537 470.928C336.459 466.328 336.979 464.15 336.718 462.514C332.73 464.676 330.4 465.285 326.121 465.552C299.763 478.005 291.044 486.892 287.484 506.52C289.832 496.832 299.575 483.456 307.244 479.487Z" fill="#CBB7A7"/>
<path d="M294.1 466.705C289 471.555 285.75 478.565 283.746 485.713C289.569 468.449 309.32 456.765 311.029 456.455C311.518 456.181 311.984 455.921 312.422 455.673C309.276 456.35 306.994 457.799 305.025 458.829C299.681 461.473 297.739 463.294 294.472 466.357L294.47 466.358C294.349 466.472 294.226 466.588 294.1 466.705Z" fill="#C2A28A"/>
<path fill-rule="evenodd" clip-rule="evenodd" d="M329.318 460.145C323.587 455.104 317.358 454.61 312.422 455.673C311.984 455.921 311.518 456.181 311.029 456.455C309.32 456.765 289.569 468.449 283.746 485.713C281.216 494.74 280.674 503.985 280.904 509.37C279.267 510.68 276.17 514.126 276.878 517.426C277.586 520.726 276.334 524.514 275.619 525.995C281.101 523.491 285.129 515.656 286.458 512.051C287.141 513.586 290.275 515.4 291.756 516.115C291.474 515.659 291.012 514.194 291.422 511.982C291.833 509.769 288.968 507.419 287.484 506.52C291.044 486.892 299.763 478.005 326.121 465.552C330.4 465.285 332.73 464.676 336.718 462.514C336.407 460.57 332.562 460.05 329.318 460.145Z" fill="#B1927A"/>
<path d="M285.47 461.033C289.653 460.312 292.967 464.514 294.1 466.705C294.226 466.588 294.349 466.472 294.47 466.358L294.472 466.357C297.739 463.294 299.681 461.473 305.025 458.829C292.517 452.107 280.241 461.933 285.47 461.033Z" fill="#594632"/>
<path fill-rule="evenodd" clip-rule="evenodd" d="M303.366 478.44C304.407 480.54 305.623 485.967 302.161 490.87C300.662 492.992 301.759 492.552 303.633 490.742C309.298 483.68 311.904 479.512 310.353 473.826C307.769 474.084 305.184 475.635 303.366 478.44Z" fill="#594632"/>
<path d="M303.633 490.742C307.174 487.323 313.492 479.012 310.353 473.826C311.904 479.512 309.298 483.68 303.633 490.742Z" fill="#C2A28A"/>
<circle cx="326.12" cy="464.261" r="1.29232" fill="#36291C"/>
<path d="M327.086 464.235C326.98 464.33 326.644 464.128 326.55 464.021C326.455 463.915 326.464 463.751 326.571 463.656C326.677 463.561 326.841 463.571 326.936 463.677C327.031 463.784 327.193 464.14 327.086 464.235Z" fill="white"/>
<path d="M226.289 608.055C232.289 608.055 244.989 605.455 249.789 597.055C251.456 600.388 258.289 608.055 272.289 608.055" stroke="#C2A28A" stroke-opacity="0.64" stroke-width="5"/>
<path d="M272.289 608.055C278.289 608.055 290.989 605.455 295.789 597.055C297.456 600.388 304.289 608.055 318.289 608.055" stroke="#C2A28A" stroke-opacity="0.64" stroke-width="5"/>
<path d="M318.289 608.055C324.289 608.055 336.989 605.455 341.789 597.055C343.456 600.388 350.289 608.055 364.289 608.055" stroke="#C2A28A" stroke-opacity="0.64" stroke-width="5"/>
<path d="M812.289 244.055C818.289 244.055 830.989 241.455 835.789 233.055C837.456 236.388 844.289 244.055 858.289 244.055" stroke="#C2A28A" stroke-opacity="0.64" stroke-width="5"/>
<path d="M858.289 244.055C864.289 244.055 876.989 241.455 881.789 233.055C883.456 236.388 890.289 244.055 904.289 244.055" stroke="#C2A28A" stroke-opacity="0.64" stroke-width="5"/>
<path d="M904.289 244.055C910.289 244.055 922.989 241.455 927.789 233.055C929.456 236.388 936.289 244.055 950.289 244.055" stroke="#C2A28A" stroke-opacity="0.64" stroke-width="5"/>
<path d="M256.879 759.055C262.879 759.055 275.579 756.455 280.379 748.055C282.046 751.388 288.879 759.055 302.879 759.055" stroke="#C2A28A" stroke-opacity="0.64" stroke-width="5"/>
<path d="M302.879 759.055C308.879 759.055 321.579 756.455 326.379 748.055C328.046 751.388 334.879 759.055 348.879 759.055" stroke="#C2A28A" stroke-opacity="0.64" stroke-width="5"/>
<path d="M680.289 389.055C686.289 389.055 698.989 386.455 703.789 378.055C705.456 381.388 712.289 389.055 726.289 389.055" stroke="#C2A28A" stroke-opacity="0.64" stroke-width="5"/>
<path d="M726.289 389.055C732.289 389.055 744.989 386.455 749.789 378.055C751.456 381.388 758.289 389.055 772.289 389.055" stroke="#C2A28A" stroke-opacity="0.64" stroke-width="5"/>
<path d="M1147.29 548.055C1153.29 548.055 1165.99 545.455 1170.79 537.055C1172.46 540.388 1179.29 548.055 1193.29 548.055" stroke="#C2A28A" stroke-opacity="0.64" stroke-width="5"/>
<path d="M1193.29 548.055C1199.29 548.055 1211.99 545.455 1216.79 537.055C1218.46 540.388 1225.29 548.055 1239.29 548.055" stroke="#C2A28A" stroke-opacity="0.64" stroke-width="5"/>
<path d="M1179.29 286.055C1185.29 286.055 1197.99 283.455 1202.79 275.055C1204.46 278.388 1211.29 286.055 1225.29 286.055" stroke="#C2A28A" stroke-opacity="0.64" stroke-width="5"/>
<path d="M961.289 591.055C967.289 591.055 979.989 588.455 984.789 580.055C986.456 583.388 993.289 591.055 1007.29 591.055" stroke="#C2A28A" stroke-opacity="0.64" stroke-width="5"/>
<path d="M401.289 148.055C407.289 148.055 419.989 145.455 424.789 137.055C426.456 140.388 433.289 148.055 447.289 148.055" stroke="#C2A28A" stroke-opacity="0.64" stroke-width="5"/>
<path d="M796.289 522.055C802.289 522.055 814.989 519.455 819.789 511.055C821.456 514.388 828.289 522.055 842.289 522.055" stroke="#C2A28A" stroke-opacity="0.64" stroke-width="5"/>
<path d="M842.289 522.055C848.289 522.055 860.989 519.455 865.789 511.055C867.456 514.388 874.289 522.055 888.289 522.055" stroke="#C2A28A" stroke-opacity="0.64" stroke-width="5"/>
<path d="M447.289 462.055C453.289 462.055 465.989 459.455 470.789 451.055C472.456 454.388 479.289 462.055 493.289 462.055" stroke="#C2A28A" stroke-opacity="0.64" stroke-width="5"/>
<path d="M493.289 462.055C499.289 462.055 511.989 459.455 516.789 451.055C518.456 454.388 525.289 462.055 539.289 462.055" stroke="#C2A28A" stroke-opacity="0.64" stroke-width="5"/>
<path d="M939.879 729.055C945.879 729.055 958.579 726.455 963.379 718.055C965.046 721.388 971.879 729.055 985.879 729.055" stroke="#C2A28A" stroke-opacity="0.64" stroke-width="5"/>
<path d="M985.879 729.055C991.879 729.055 1004.58 726.455 1009.38 718.055C1011.05 721.388 1017.88 729.055 1031.88 729.055" stroke="#C2A28A" stroke-opacity="0.64" stroke-width="5"/>
<path d="M1025.38 182.055L1047.38 160.055L1057.38 168.555L1082.38 186.055L1097.38 206.055L1101.88 243.555C1116.88 251.388 1146.88 267.955 1146.88 271.555C1146.88 275.155 1140.88 285.721 1137.88 290.555L1146.88 320.055L1169.38 328.055C1168.88 343.721 1167.38 376.455 1165.38 382.055C1163.38 387.655 1146.21 396.721 1137.88 400.555C1145.55 403.055 1160.88 408.855 1160.88 412.055C1160.88 415.255 1153.55 427.055 1149.88 432.555L1154.88 440.055V484.055L1129.38 508.555L1039.38 520.055L1043.38 533.055L1016.38 539.055C1000.88 536.555 969.281 530.855 966.881 528.055C964.481 525.255 946.548 500.555 937.881 488.555C915.481 482.555 889.881 469.055 879.881 463.055L921.381 408.055C912.214 401.221 894.081 386.455 894.881 382.055C895.681 377.655 923.881 348.888 937.881 335.055L943.881 308.055L969.881 295.555L976.381 277.055L992.881 224.555L1005.38 219.555L1025.38 182.055Z" fill="#715941" fill-opacity="0.67"/>
<path d="M1025.38 165.055L1047.38 143.055L1057.38 151.555L1082.38 169.055L1097.38 189.055L1101.88 226.555C1116.88 234.388 1146.88 250.955 1146.88 254.555C1146.88 258.155 1140.88 268.721 1137.88 273.555L1146.88 303.055L1169.38 311.055C1168.88 326.721 1167.38 359.455 1165.38 365.055C1163.38 370.655 1146.21 379.721 1137.88 383.555C1145.55 386.055 1160.88 391.855 1160.88 395.055C1160.88 398.255 1153.55 410.055 1149.88 415.555L1154.88 423.055V467.055L1129.38 491.555L1039.38 503.055L1043.38 516.055L1016.38 522.055C1000.88 519.555 969.281 513.855 966.881 511.055C964.481 508.255 946.548 483.555 937.881 471.555C915.481 465.555 889.881 452.055 879.881 446.055L921.381 391.055C912.214 384.221 894.081 369.455 894.881 365.055C895.681 360.655 923.881 331.888 937.881 318.055L943.881 291.055L969.881 278.555L976.381 260.055L992.881 207.555L1005.38 202.555L1025.38 165.055Z" fill="#D0B8A1"/>
<path d="M1024.3 221.66C1024.7 222.46 1025.8 222.326 1026.3 222.16C1039.13 222.16 1065.1 222.56 1066.3 222.16C1067.8 221.66 1049.8 182.66 1047.8 180.16C1045.8 177.66 1023.8 220.66 1024.3 221.66Z" fill="#B1927A"/>
<path d="M1043.79 189.555L1040.29 190.055C1045.79 181.055 1047.29 180.055 1047.79 180.055C1048.19 180.055 1051.29 186.388 1052.79 189.555L1051.79 192.055L1048.29 189.555L1046.29 191.055L1043.79 189.555Z" fill="#E9D4C4"/>
<path d="M960.295 318.461C960.568 319.007 961.319 318.916 961.66 318.802C970.422 318.802 988.151 319.075 988.971 318.802C989.995 318.461 977.705 291.833 976.34 290.126C974.974 288.419 959.953 317.778 960.295 318.461Z" fill="#B1927A"/>
<path d="M973.603 296.541L971.213 296.882C974.968 290.737 975.992 290.055 976.334 290.055C976.607 290.055 978.723 294.379 979.747 296.541L979.065 298.248L976.675 296.541L975.309 297.565L973.603 296.541Z" fill="#E9D4C4"/>
<path d="M1040.3 224.82C1040.7 225.431 1041.8 225.329 1042.3 225.202C1055.13 225.202 1081.1 225.507 1082.3 225.202C1083.8 224.82 1065.8 195.044 1063.8 193.135C1061.8 191.226 1039.8 224.056 1040.3 224.82Z" fill="#C29F83"/>
<path d="M1059.79 200.308L1056.29 200.69C1061.79 193.818 1063.29 193.055 1063.79 193.055C1064.19 193.055 1067.29 197.89 1068.79 200.308L1067.79 202.217L1064.29 200.308L1062.29 201.453L1059.79 200.308Z" fill="#E9D4C4"/>
<path d="M950.295 321.985C950.568 322.402 951.319 322.332 951.66 322.246C960.422 322.246 978.151 322.454 978.971 322.246C979.995 321.985 967.705 301.655 966.34 300.352C964.974 299.048 949.953 321.464 950.295 321.985Z" fill="#C29F83"/>
<path d="M963.603 305.249L961.213 305.51C964.968 300.818 965.992 300.297 966.334 300.297C966.607 300.297 968.723 303.598 969.747 305.249L969.065 306.552L966.675 305.249L965.309 306.031L963.603 305.249Z" fill="#E9D4C4"/>
<path d="M1107.32 318.647C1104.91 319.407 1104.76 322.271 1104.73 324.104C1105.16 328.112 1156.7 326.476 1157.2 326.484C1157.7 326.493 1158.21 325.501 1158.22 325.001C1158.23 324.501 1157.75 322.993 1157.77 321.993C1157.79 320.993 1157.3 320.485 1156.8 319.977C1156.31 319.469 1154.3 319.935 1153.32 318.918C1152.34 317.902 1151.35 317.385 1150.36 316.868C1149.36 316.352 1147.36 316.818 1145.36 316.285C1143.37 315.751 1141.3 320.217 1140.82 319.209C1140.33 318.2 1137.32 318.65 1136.84 317.642C1136.36 316.634 1132.33 318.066 1132.35 317.066C1132.37 316.067 1131.38 315.55 1130.38 315.033L1130.38 315.033C1129.39 314.517 1127.88 314.991 1127.39 314.483C1126.9 313.975 1124.33 317.932 1123.84 317.424C1123.35 316.916 1121.37 315.882 1119.87 315.857C1118.37 315.832 1117.85 316.823 1116.35 316.798C1114.85 316.773 1115.32 318.781 1113.34 317.748C1111.35 316.714 1110.34 317.698 1107.32 318.647Z" fill="#9A8472"/>
</svg>
