<svg width="115" height="90" viewBox="0 0 115 90" fill="none" xmlns="http://www.w3.org/2000/svg">
<path d="M71 71.5L29 59.5L32 77L75.5 89.5L71 71.5Z" fill="#715941"/>
<path d="M71 71.5L29 59.5L52 50L93.5 61L71 71.5Z" fill="#473828"/>
<path d="M80.5 40.5L41.5 30.5L52 50L93.5 61L80.5 40.5Z" fill="#594632"/>
<path d="M80.5 40.5L98.5 34.5L109.5 53.5L93.5 61L80.5 40.5Z" fill="#92775C"/>
<path d="M80.5 40.5L41.5 30.5L62 25L98.5 34.5L80.5 40.5Z" fill="#715941"/>
<path d="M71 71.5L75.5 89.5L93.5 82V61L71 71.5Z" fill="#92775C"/>
<g filter="url(#filter0_f_101_178)">
<path d="M29.5 61.5L10 27.5L44 10L104.5 25L94 63L71.5 73.5L29.5 61.5Z" fill="#F1DEBA" fill-opacity="0.5"/>
</g>
<path d="M29.0004 52.4995C27.4004 54.8995 28.6671 58.1661 29.5004 59.4995L71.0005 71.4995L90.0005 62.9995L90.5005 61.4995C90.6672 60.9995 90.9005 59.8995 90.5005 59.4995C90.0005 58.9995 90.5005 57.9995 90.0005 56.9995C89.5005 55.9995 88.0005 55.4995 87.5005 53.9995C87.0005 52.4995 84.0005 50.9995 82.5005 49.9995C81.0005 48.9995 79.0005 48.4995 78.5005 47.4995C78.0005 46.4995 73.0005 46.9995 72.0005 46.4995C71.0005 45.9995 68.5005 45.9995 66.0005 44.4995C63.5005 42.9995 63.5005 43.9995 61.5005 42.4995C59.5005 40.9995 56.0005 42.4995 53.5005 41.9995C51.0005 41.4995 49.5005 42.4995 47.0005 42.4995C44.5005 42.4995 42.5005 42.9995 40.5005 44.4995C38.5005 45.9995 39.0005 45.4995 35.0005 46.4995C31.0005 47.4995 31.0004 49.4995 29.0004 52.4995Z" fill="#E4D292"/>
<path d="M35.6391 55.6397C34.3076 57.58 35.3617 60.2209 36.0552 61.2988L70.5893 71L86.4001 64.1283L86.8162 62.9156C86.9549 62.5114 87.1491 61.6221 86.8162 61.2988C86.4001 60.8946 86.8162 60.0861 86.4001 59.2777C85.9841 58.4692 84.7358 58.065 84.3198 56.8524C83.9037 55.6397 81.4073 54.4271 80.159 53.6186C78.9108 52.8102 77.2465 52.406 76.8304 51.5975C76.4144 50.7891 72.2536 51.1933 71.4215 50.7891C70.5893 50.3849 68.509 50.3849 66.4286 49.1722C64.3482 47.9596 64.3482 48.768 62.6839 47.5554C61.0196 46.3427 58.1071 47.5554 56.0268 47.1512C53.9464 46.7469 52.6982 47.5554 50.6178 47.5554C48.5374 47.5554 46.8731 47.9596 45.2088 49.1722C43.5445 50.3849 43.9606 49.9807 40.632 50.7891C37.3034 51.5975 37.3034 53.2144 35.6391 55.6397Z" fill="#D5C282"/>
<path d="M30.5776 54.2797C29.3742 56.1391 30.3269 58.67 30.9537 59.703L62.1673 69L76.4578 62.4146L76.8339 61.2525C76.9592 60.8651 77.1347 60.0129 76.8339 59.703C76.4578 59.3156 76.8339 58.5409 76.4578 57.7661C76.0817 56.9914 74.9535 56.604 74.5775 55.4419C74.2014 54.2797 71.945 53.1176 70.8168 52.3429C69.6886 51.5681 68.1843 51.1807 67.8083 50.406C67.4322 49.6312 63.6716 50.0186 62.9194 49.6312C62.1673 49.2439 60.287 49.2439 58.4066 48.0817C56.5263 46.9196 56.5263 47.6944 55.022 46.5322C53.5178 45.3701 50.8853 46.5322 49.005 46.1449C47.1246 45.7575 45.9964 46.5322 44.1161 46.5322C42.2358 46.5322 40.7315 46.9196 39.2272 48.0817C37.723 49.2439 38.099 48.8565 35.0905 49.6312C32.082 50.406 32.0819 51.9555 30.5776 54.2797Z" fill="#F2DF9A"/>
<path d="M48.4179 61.1198C47.5473 62.4941 48.2365 64.3648 48.6899 65.1283L71.27 72L81.6078 67.1325L81.8798 66.2736C81.9705 65.9873 82.0975 65.3574 81.8798 65.1283C81.6078 64.842 81.8798 64.2693 81.6078 63.6967C81.3357 63.1241 80.5196 62.8377 80.2475 61.9788C79.9755 61.1198 78.3432 60.2608 77.5271 59.6882C76.7109 59.1156 75.6227 58.8292 75.3507 58.2566C75.0786 57.684 72.3581 57.9703 71.814 57.684C71.27 57.3976 69.9097 57.3976 68.5495 56.5387C67.1892 55.6797 67.1892 56.2523 66.101 55.3934C65.0128 54.5344 63.1085 55.3934 61.7483 55.1071C60.388 54.8207 59.5719 55.3934 58.2116 55.3934C56.8514 55.3934 55.7632 55.6797 54.675 56.5387C53.5868 57.3976 53.8589 57.1113 51.6825 57.684C49.5061 58.2566 49.5061 59.4019 48.4179 61.1198Z" fill="#E4D292"/>
<defs>
<filter id="filter0_f_101_178" x="0" y="0" width="114.5" height="83.5" filterUnits="userSpaceOnUse" color-interpolation-filters="sRGB">
<feFlood flood-opacity="0" result="BackgroundImageFix"/>
<feBlend mode="normal" in="SourceGraphic" in2="BackgroundImageFix" result="shape"/>
<feGaussianBlur stdDeviation="5" result="effect1_foregroundBlur_101_178"/>
</filter>
</defs>
</svg>
